<?xml version="1.0" encoding="UTF-8"?>
<svg id="Layer_1" data-name="Layer 1" xmlns="http://www.w3.org/2000/svg" viewBox="0 0 951.75 154.5">
  
  <path fill="#1f1f1f" d="M951.75,97.75c-2.92,28.65-36.77,30.74-58.8,24.68-6.83-1.88-13.03-4.85-18.95-8.68l12.39-21.74c7.26,4.2,15.88,7.49,24.27,8.47,3.71.43,13.11,1.01,12.59-4.84-.25-2.81-3.98-3.88-6.3-4.46-12.67-3.19-32.19-5.16-37.4-19.85-5.59-15.75,6.62-29.91,21.14-34,16.7-4.7,35.25-.28,49.95,8.17l-10.42,21.74c-.39.28-3.84-1.71-4.56-2.03-6.1-2.69-18.92-7.17-25.31-5.22-2.62.8-3.52,3.35-1.74,5.52,2.31,2.83,11.2,3.91,14.88,4.87,11.95,3.11,26.99,9.17,28.25,23.38v4Z"/>
  <polygon fill="#1f1f1f" points="768 37.75 781.12 81.5 795.49 37.86 817.89 37.74 818.63 38 833 81.25 846 37.75 877 37.75 848.1 122.77 821.49 122.64 806.63 77.75 791.98 122.72 765.24 122.64 736.25 37.75 768 37.75"/>
  <path fill="#5f01d1" d="M229.25,0v45.75c5.09-5.59,11.4-9.45,19.13-10,21.04-1.5,32.15,12.72,32.63,32.61v54.39h-30.26v-48.62c0-11.77-15.43-14.82-19.87-4.37-.48,1.14-1.38,4.22-1.38,5.37v47.62h-30.25V0h30Z"/>
  <path fill="#5f01d1" d="M188.75,122.75h-28.5v-7.5c-12.3,14.22-35.07,11.85-48.37.24-21.54-18.8-19.66-57.21,4.19-73.3,13.33-8.99,32.87-9.4,44.18,3.06v-7.5c9.39.37,19.15-.49,28.5,0v85ZM140.94,63.07c-21.44,2.42-19.13,36.51,4.18,34.68,22.58-1.77,20.59-37.47-4.18-34.68Z"/>
  <path fill="#5f01d1" d="M32.38,37.75l19.38,49.5,19.75-49.5h31.12c.15,0,.35.36.34.57-.05.81-1,3.01-1.35,3.92l-46.74,112.26h-31.62l.12-1.01c3.67-9.06,7.92-17.91,11.5-27,.33-.84,1.19-2.54,1.09-3.3L0,37.75h32.38Z"/>
  <path fill="#1f1f1f" d="M637.75,122.75h-30.25v-49.12c0-4.53-3.75-9.55-8.4-10.1-8.69-1.02-12.4,5.37-12.86,13.09v46.14s-29.99,0-29.99,0V37.75h30v7.75c4.97-5.42,11.4-9.19,18.88-9.75,20.33-1.51,31.58,11.79,32.62,31.12v55.87Z"/>
  <path fill="#1f1f1f" d="M677.25,86.25c.89,14.49,20.06,18.01,29.63,9.26,1.15-1.05,1.8-2.45,2.99-3.25l23.48,9.72c.3.16.18.58.1.84-.31,1.15-2.59,4.49-3.4,5.61-10.45,14.58-29.57,18.81-46.6,15.99-51.14-8.47-47.91-83.64,3.42-88.92,29.05-2.99,51.69,18.64,49.62,47.87-.06.83-.2,2.29-.62,2.88h-58.62ZM706.25,70.25c-.82-8.89-6.6-14.12-15.64-13.51-7.7.52-12.12,6.33-13.36,13.51h29Z"/>
  <path fill="#5f01d1" d="M423.95,35.82c32.1-2.4,56.35,23.48,48.97,55.47-9.63,41.76-70.8,45.64-86.54,6.45-11.34-28.25,6.93-59.63,37.57-61.92ZM426.7,63.32c-23.05,2.35-17.84,39.24,6.1,33.6,19.68-4.63,15.47-35.8-6.1-33.6Z"/>
  <path fill="#5f01d1" d="M327.95,35.82c31.04-2.32,54.9,21.72,49.47,52.97-7.65,44-71.48,49.17-87.29,8.45-10.95-28.18,7.45-59.15,37.82-61.42ZM330.7,63.32c-22.91,2.34-18.11,39.09,6.1,33.6,19.49-4.41,15.55-35.81-6.1-33.6Z"/>
  <polygon fill="#5f01d1" points="556.25 0 524.12 77.25 488.75 77.25 520.5 0 556.25 0"/>
  <path fill="#5f01d1" d="M495.95,84.57c14.4-1.39,24.87,11.73,20.79,25.54s-21.01,18.84-31.85,9.88c-13.71-11.33-6.4-33.74,11.07-35.42Z"/>
  <path fill="#5f01d1" d="M188.75,37.75c.25.01.5-.01.75,0-.4,2.14-.31,4.66-.26,6.88.02.77.26,1.45.27,2.23.44,25.23-.36,50.51,0,75.74l-.75.15V37.75Z"/>
</svg>