<?xml version="1.0" encoding="UTF-8" standalone="no"?>
<svg
   xmlns:xapG="http://ns.adobe.com/xap/1.0/g/"
   xmlns:stDim="http://ns.adobe.com/xap/1.0/sType/Dimensions#"
   xmlns:xapTPg="http://ns.adobe.com/xap/1.0/t/pg/"
   xmlns:stRef="http://ns.adobe.com/xap/1.0/sType/ResourceRef#"
   xmlns:xapMM="http://ns.adobe.com/xap/1.0/mm/"
   xmlns:xapGImg="http://ns.adobe.com/xap/1.0/g/img/"
   xmlns:xap="http://ns.adobe.com/xap/1.0/"
   xmlns:x="adobe:ns:meta/"
   xmlns:dc="http://purl.org/dc/elements/1.1/"
   xmlns:cc="http://creativecommons.org/ns#"
   xmlns:rdf="http://www.w3.org/1999/02/22-rdf-syntax-ns#"
   xmlns:svg="http://www.w3.org/2000/svg"
   xmlns="http://www.w3.org/2000/svg"
   id="Layer_1"
   x="0px"
   y="0px"
   width="583.333px"
   height="60px"
   viewBox="0 0 583.333 60"
   enable-background="new 0 0 583.333 60"
   xml:space="preserve"><defs
   id="defs87" />
<path
   id="path4"
   d="M 480.77734 1.484375 C 478.76834 1.484375 476.09366 2.4750312 472.84766 4.7070312 C 468.51766 7.6860313 467.9253 10.530969 467.5293 13.292969 C 467.4883 13.572969 467.38477 15.473453 467.38477 15.814453 L 467.375 36.806641 C 467.375 38.027641 467.21969 38.527437 466.92969 39.023438 C 469.33869 37.833438 472.13136 35.396656 472.94336 33.847656 C 473.93436 31.897656 473.87072 28.127703 473.88672 23.970703 C 473.88772 23.778703 473.87842 23.793828 473.85742 23.673828 L 473.88477 22.085938 L 478.41797 25.328125 L 478.42383 41.595703 C 478.35783 44.208703 477.58555 47.223172 476.06055 49.701172 C 474.55555 52.144172 472.34941 54.540438 469.31641 57.023438 C 469.36741 57.061437 471.83014 56.260219 475.36914 57.574219 C 476.02814 57.820219 476.82042 57.897828 477.23242 57.923828 C 480.26242 57.980828 483.02317 56.186797 485.45117 52.591797 C 481.13817 53.487797 477.50005 53.011234 475.37305 52.365234 C 481.96005 48.017234 485.27539 42.958297 485.27539 38.279297 L 485.27539 21.779297 L 480.24805 16.775391 L 473.89258 20.755859 L 473.89062 6.015625 C 473.87963 5.670625 473.93877 5.2486562 474.38477 4.9726562 C 474.70277 4.7756562 475.84766 4.7988281 475.84766 4.7988281 C 477.50366 4.8988281 479.77967 7.4073281 481.38867 9.3613281 C 482.28667 8.7613281 485.16419 6.6915625 487.36719 5.1015625 C 486.61019 3.6065625 485.26548 2.7558281 484.27148 2.2988281 C 483.15848 1.7888281 481.85334 1.483375 480.77734 1.484375 z M 556.83984 1.5800781 C 554.73684 1.5800781 553.94734 3.0119687 553.02734 3.7929688 C 552.36934 3.4669688 551.45009 3.3359375 551.12109 3.3359375 C 549.74109 3.3359375 548.88773 3.9215156 548.42773 5.3535156 C 548.95273 5.6785156 549.36478 5.9226719 549.67578 6.2636719 C 550.18678 6.8266719 550.31966 9.0212188 550.34766 10.574219 L 550.33789 11.101562 L 550.33789 42.289062 L 548.68164 43.806641 L 553.70508 47.226562 L 560.08594 43.138672 L 559.81836 42.726562 L 558.48438 43.603516 L 557.0918 42.367188 C 557.0918 42.367188 557.04934 15.023453 557.15234 6.3144531 C 557.25134 4.7434531 557.55742 3.1600625 558.48242 2.1640625 C 558.02242 1.8390625 557.23384 1.5800781 556.83984 1.5800781 z M 52.275391 1.796875 C 50.172391 1.796875 49.083375 3.5024531 48.609375 4.5644531 C 47.952375 4.2384531 46.885641 4.0722656 46.556641 4.0722656 C 45.176641 4.0722656 44.323281 4.6588437 43.863281 6.0898438 C 44.389281 6.4148437 44.800328 6.658 45.111328 7 C 45.622328 7.563 45.755203 9.7575 45.783203 11.3125 L 45.779297 12.925781 L 45.785156 42.279297 L 43.941406 43.804688 L 49.162109 47.228516 L 54.363281 43.853516 C 54.363281 43.853516 52.645969 42.438313 52.542969 42.320312 L 52.542969 23.490234 L 54.279297 22.357422 L 56.835938 25.179688 L 56.835938 43.273438 C 56.841938 45.122438 59.689453 47.398438 59.689453 47.398438 C 58.094453 48.825438 55.703125 52.222234 55.703125 54.115234 C 55.703125 55.403234 56.511234 57.320312 58.740234 57.320312 C 59.262234 57.320312 59.892781 57.151234 60.425781 56.865234 C 61.030781 56.542234 61.421344 56.117875 61.527344 55.671875 L 61.550781 55.564453 C 61.245781 55.639453 61.013844 55.670313 60.589844 55.695312 C 60.284844 55.714312 59.952203 55.716797 59.783203 55.716797 C 59.189203 55.716797 58.013094 55.537094 57.371094 54.871094 C 57.065094 54.554094 56.921359 54.165797 56.943359 53.716797 C 56.994359 52.549797 57.338187 51.457906 57.992188 50.378906 C 58.736188 49.224906 59.715344 48.223297 60.902344 47.404297 C 61.862344 46.644297 64.993156 44.539141 65.410156 44.244141 L 65.421875 44.144531 C 64.599875 43.269531 63.666969 42.279219 63.667969 40.574219 L 63.667969 20.269531 L 59.59375 17.634766 L 52.548828 22.255859 L 52.548828 10.189453 L 52.548828 9.8710938 C 52.548828 7.7240937 52.405969 4.0098125 53.917969 2.3828125 C 53.457969 2.0588125 52.669391 1.796875 52.275391 1.796875 z M 118.2832 2.4648438 C 108.5232 2.4498437 102.75903 10.643406 102.83203 16.066406 C 102.87803 19.445406 103.53214 23.15775 105.24414 24.71875 C 106.99014 26.31175 109.93117 27.472781 115.07617 28.675781 L 115.42188 28.763672 L 114.5957 29.667969 C 113.2457 30.800969 112.27138 31.890078 109.73438 31.955078 C 108.12937 31.955078 107.38255 31.412297 106.81055 30.904297 L 106.6875 30.957031 C 106.8225 31.223031 107.16709 31.814328 107.62109 32.361328 C 108.19709 33.052328 108.73008 33.416359 109.20508 33.443359 C 109.28508 33.464359 109.95606 33.629875 111.03906 33.296875 C 112.44306 32.864875 113.95988 31.827031 115.42188 30.207031 L 115.98633 29.585938 L 116.55273 28.962891 L 120.22266 29.609375 C 120.64266 29.701375 121.05787 29.749516 121.42188 29.853516 L 119.90625 32.119141 C 118.00025 34.955141 117.26758 35.839844 117.26758 35.839844 C 117.26758 35.839844 115.99716 35.65975 115.66016 35.59375 C 114.61516 35.38775 112.9685 35.286688 110.6875 35.304688 C 106.2315 35.263688 100.07242 36.88625 96.357422 40.53125 C 95.593422 41.28125 94.961469 42.094219 94.480469 42.949219 C 93.613469 44.425219 93.173828 46.042813 93.173828 47.757812 C 93.173828 49.965812 94.650453 52.542969 98.814453 52.542969 C 104.39145 52.542969 109.24283 47.355359 111.79883 44.568359 L 112.21289 44.119141 C 112.97389 43.295141 113.32361 42.721734 113.59961 42.427734 C 116.54961 43.230734 121.33925 45.200203 125.53125 47.908203 C 126.38425 47.054203 128.88547 44.120547 131.23047 40.685547 C 132.51947 38.797547 135.4868 34.415641 135.5918 31.056641 C 135.6938 27.834641 132.63452 23.969313 126.97852 22.820312 C 127.16252 22.450312 127.4997 21.880844 128.3457 20.589844 C 130.6707 17.043844 132.77041 13.351562 137.19141 13.351562 C 137.98241 13.351562 139.62653 13.530156 140.51953 15.160156 C 140.54453 15.200156 140.56161 15.221672 140.59961 15.263672 L 140.69336 15.185547 C 141.15736 14.747547 141.58984 13.845641 141.58984 13.306641 C 141.58984 12.681641 141.35755 12.107406 140.93555 11.691406 C 140.52655 11.236406 139.89364 10.975969 139.05664 10.917969 C 138.98464 10.910969 138.57678 10.892578 138.55078 10.892578 C 136.49978 10.912578 134.28808 12.181109 131.95508 14.412109 C 129.90608 16.370109 129.13184 17.823031 127.83984 19.832031 C 126.78884 21.467031 126.28886 22.239594 126.00586 22.683594 C 125.61086 22.634594 123.23256 22.264641 121.10156 21.806641 C 121.78656 20.711641 123.81138 17.2075 126.10938 13.9375 C 127.77837 11.5605 129.79945 9.4066875 130.81445 8.1796875 C 130.97145 7.9906875 131.12264 7.8774375 131.30664 7.7734375 C 131.44664 7.6954375 131.65075 7.5954844 131.71875 7.5214844 C 131.72575 7.4264844 131.45125 7.1570469 131.40625 7.1230469 C 131.26625 7.1430469 131.18631 7.1715625 131.07031 7.2265625 C 130.91731 7.3005625 130.70511 7.4003906 130.41211 7.4003906 C 130.04411 7.4003906 129.6627 7.0893906 128.9707 6.5253906 C 127.2277 5.1063906 123.9812 2.4738437 118.2832 2.4648438 z M 300.92773 2.9355469 C 300.92773 2.9355469 294.76012 7.895375 294.32812 8.234375 L 291.47656 5.9648438 C 290.31656 5.0028438 288.56648 3.5484062 288.02148 3.1914062 C 287.12148 3.6814063 274.28711 14.513672 274.28711 14.513672 L 274.28711 23.533203 L 273.94336 23.580078 C 266.78036 24.537078 266.22266 29.987719 266.22266 31.636719 C 266.22266 31.840719 266.44291 32.691422 266.62891 33.357422 L 266.67578 33.527344 L 266.75586 33.371094 C 267.21686 32.461094 267.89861 31.661547 268.72461 31.060547 C 269.56161 30.451547 270.53416 30.057922 271.53516 29.919922 C 273.83816 29.602922 274.0353 29.778812 274.1543 29.882812 L 274.28711 30.001953 L 274.27148 39.666016 C 274.23848 40.636016 274.08141 41.092922 273.81641 41.544922 C 276.30941 40.311922 279.20197 37.789547 280.04297 36.185547 C 281.06897 34.164547 281.00391 34.182047 281.00391 29.873047 L 281.00391 29.398438 L 286.97656 29.398438 L 286.97656 40.621094 L 284.89648 42.763672 L 291.97266 47.425781 L 298.57227 42.605469 L 297.61133 42.085938 C 297.61133 42.085938 297.35181 42.273563 297.25781 42.351562 C 297.07481 42.502563 296.84114 42.619141 296.61914 42.619141 C 295.91414 42.619141 293.8897 40.864969 293.7207 40.417969 L 293.69922 29.367188 L 300.19336 29.369141 L 300.19336 39.912109 C 300.17836 40.656109 300.15777 41.899766 301.00977 43.759766 C 301.18777 44.098766 303.24525 46.730578 304.78125 47.517578 C 305.48325 47.154578 311.46094 42.751953 311.46094 42.751953 L 310.77344 42.339844 C 310.77344 42.339844 310.10663 42.873406 309.76562 42.816406 C 309.62962 42.795406 309.39694 42.716781 309.08594 42.550781 C 308.13294 41.946781 307.17383 40.694969 307.17383 38.792969 L 307.17383 12.019531 C 307.17383 10.384531 307.84022 9.3961875 308.19922 8.8671875 L 308.18359 8.7773438 C 307.49059 8.2313438 306.70527 7.5673125 305.82227 6.8203125 C 304.23927 5.4813125 302.10173 3.8475469 300.92773 2.9355469 z M 273.30664 3.234375 C 268.99764 3.234375 264.17969 6.4716875 264.17969 10.804688 C 264.18069 11.571687 265.06586 14.234937 266.75586 15.085938 L 266.85938 14.994141 C 265.88837 14.216141 265.4668 13.261437 265.4668 12.648438 C 265.4668 10.957437 266.91089 9.1582031 269.58789 9.1582031 C 270.07989 9.1582031 271.49492 9.4576562 273.29492 9.8476562 C 274.06492 10.014656 274.93761 10.201891 275.09961 10.212891 C 277.30861 10.264891 280.80611 7.9333906 282.91211 5.6503906 L 283.01953 5.5332031 L 282.92578 5.5351562 C 281.04978 5.5381563 279.58688 4.9593906 278.17188 4.4003906 C 276.71787 3.8263906 275.21364 3.234375 273.30664 3.234375 z M 454.26758 4.1835938 C 449.81258 4.1835938 446.82031 6.8654219 446.82031 10.857422 C 446.82031 11.784422 447.19708 12.839734 447.83008 13.677734 C 447.68808 13.302734 447.59113 12.947406 447.57812 12.566406 C 447.57912 11.059406 448.71705 10.160156 450.62305 10.160156 C 450.91305 10.160156 452.18453 10.438219 455.01953 11.074219 C 456.56953 11.421219 458.49047 11.853094 458.73047 11.871094 L 460.2207 11.871094 C 461.8127 11.871094 465.13352 9.9306875 469.10352 6.6796875 L 469.79883 6.1269531 C 468.83083 6.5319531 467.79914 6.9472656 466.61914 6.9472656 C 464.95214 6.9472656 462.96247 6.3116719 460.85547 5.6386719 C 458.61547 4.9236719 456.29858 4.1835938 454.26758 4.1835938 z M 14.248047 5.2851562 C 8.4940469 5.2851562 1.7753906 7.9408281 1.7753906 15.423828 C 1.7753906 18.122828 3.650875 23.154797 8.171875 25.466797 L 8.3632812 25.570312 C 8.3632812 25.570312 7.28125 27.925328 7.28125 29.986328 C 7.28125 37.201328 11.855234 48.224609 24.740234 48.224609 C 27.841234 48.224609 30.698422 47.532969 33.232422 46.167969 C 35.260422 45.076969 37.086156 43.555484 38.660156 41.646484 C 41.342156 38.396484 42.373766 35.104266 42.384766 35.072266 L 42.365234 35.023438 L 42.267578 35.009766 C 38.332578 39.819766 34.786125 41.338453 34.203125 41.564453 L 34.205078 16.361328 L 34.173828 16.361328 C 38.730828 16.158328 41.873047 13.583187 41.873047 9.3671875 C 41.863047 8.8921875 41.776391 8.1910938 41.525391 7.4960938 C 40.245391 9.0940938 38.051656 9.5644531 36.722656 9.5644531 C 33.439656 9.5644531 29.914641 8.5743906 26.181641 7.5253906 C 22.259641 6.4233906 18.202047 5.2851562 14.248047 5.2851562 z M 161.40039 5.5429688 C 161.36539 6.4769688 161.3912 12.589562 161.4082 14.101562 C 162.7382 15.336562 165.8043 18.181875 167.1543 19.421875 C 165.7953 20.599875 163.22705 21.982141 161.24805 22.494141 C 161.17805 22.506141 161.49023 23.095578 161.49023 23.767578 L 161.49023 42.976562 L 167.3457 47.306641 C 172.8737 43.775641 176.80775 42.887672 178.71875 42.513672 L 178.77539 21.787109 L 161.40039 5.5429688 z M 562.82812 5.6542969 C 562.79512 6.5882969 562.82089 12.703844 562.83789 14.214844 C 564.16789 15.450844 567.23203 18.295156 568.58203 19.535156 C 567.22303 20.713156 564.65478 22.095422 562.67578 22.607422 C 562.60678 22.619422 562.91797 23.208859 562.91797 23.880859 L 562.91797 43.089844 L 568.77344 47.419922 C 574.30244 43.888922 578.23744 43.000953 580.14844 42.626953 L 580.20312 21.900391 L 562.82812 5.6542969 z M 382.60547 7.0761719 L 378.47852 10.263672 L 378.45117 10.283203 L 378.47656 10.306641 L 382.04688 13.576172 L 382.06445 13.564453 L 386.22656 10.580078 L 382.60547 7.0761719 z M 283.50781 8.9277344 C 283.53181 8.9497344 286.95147 11.817891 286.98047 11.837891 L 286.98047 23.207031 L 281.00781 23.207031 L 281.00781 11.007812 L 283.50781 8.9277344 z M 296.08984 8.9589844 L 300.38086 12.964844 L 300.38086 23.207031 L 293.69922 23.207031 L 293.69922 10.847656 L 296.08984 8.9589844 z M 113.96484 9.0488281 C 114.61184 9.0488281 121.48361 9.6410156 124.72461 14.041016 C 124.69061 14.105016 120.75562 20.269703 119.89062 21.595703 C 119.16563 21.495703 116.83658 21.104516 116.26758 20.978516 C 114.37458 20.591516 104.93555 17.838656 104.93555 13.722656 C 104.93555 9.0496562 111.03384 9.0488281 113.96484 9.0488281 z M 466.63477 10.773438 C 464.87177 11.903437 463.7775 12.850656 462.4375 14.222656 C 461.0445 15.650656 460.04066 16.901312 459.72266 17.695312 C 458.76966 20.043312 459.01577 23.616047 459.00977 24.373047 C 451.63177 25.153047 450.25977 28.500187 450.38477 31.367188 C 450.38977 31.500187 450.48545 31.976375 450.56445 32.359375 L 450.65039 32.775391 C 452.14839 30.833391 454.19952 30.402797 456.85352 30.341797 C 457.21152 30.333797 458.0242 30.395047 458.2832 30.498047 C 458.6642 30.651047 458.84288 30.887797 458.92188 31.091797 C 458.98687 31.258797 459.01367 37.554688 459.01367 37.554688 C 459.01367 38.775687 458.85836 39.275484 458.56836 39.771484 C 460.97636 38.581484 463.76808 36.144703 464.58008 34.595703 C 465.57108 32.644703 465.4922 28.767109 465.4082 24.662109 C 465.3132 19.985109 465.20577 14.686438 466.63477 10.773438 z M 13.523438 12.279297 C 14.993437 12.271297 16.708562 12.463391 17.351562 12.650391 C 10.749562 19.198391 8.6171875 24.9375 8.6171875 24.9375 L 8.3417969 24.806641 C 6.4407969 23.855641 5.5383125 21.476453 5.4453125 19.439453 C 5.2163125 14.509453 8.7674375 12.307297 13.523438 12.279297 z M 18.355469 12.923828 C 18.728469 13.038828 20.5465 13.488672 21.4375 13.888672 L 21.457031 24.595703 L 21.457031 33.087891 L 21.457031 36.650391 L 21.457031 36.925781 C 21.393031 37.990781 21.039828 39.157125 20.173828 40.578125 L 19.849609 40.373047 C 15.472609 37.582047 13.314203 32.086375 13.033203 26.234375 C 12.828203 21.972375 15.079469 16.453828 18.355469 12.923828 z M 28.064453 15.675781 C 28.064453 15.675781 30.205547 16.252891 33.185547 16.337891 L 33.220703 41.939453 C 28.536703 43.543453 23.350922 42.413 21.169922 41.125 C 21.426922 40.971 21.695312 40.783203 21.695312 40.783203 C 25.980313 38.003203 28.064453 35.419766 28.064453 32.884766 L 28.064453 15.675781 z M 427.59961 17.357422 C 426.48261 18.191422 419.70614 21.247766 413.24414 23.134766 C 413.45414 23.366766 413.88086 23.863281 413.88086 23.863281 L 413.83008 35.119141 C 413.79308 36.994141 413.84544 39.337094 414.52344 41.371094 C 415.26544 43.597094 416.63213 45.283391 418.70312 46.525391 L 419.2168 46.841797 L 408.62695 55.673828 C 408.71795 55.739828 408.77083 56.832031 408.79883 56.832031 C 409.01383 56.832031 409.3105 56.693531 409.6875 56.519531 C 410.4915 56.146531 411.7052 55.582031 413.7832 55.582031 C 416.6712 55.582031 419.72536 57.445844 421.19336 58.339844 C 421.45536 58.499844 421.72161 58.660609 421.84961 58.724609 C 422.73961 58.519609 426.13091 55.967531 429.12891 53.269531 C 430.83491 51.733531 432.27778 50.275688 433.30078 49.054688 C 434.52578 47.591687 435.14453 46.479047 435.14453 45.748047 C 435.14453 44.776047 434.48516 43.921578 433.78516 43.017578 C 433.11416 42.150578 432.2793 41.072859 432.2793 39.755859 L 432.2793 21.638672 C 432.2793 21.638672 428.93561 18.650422 427.59961 17.357422 z M 326.15234 17.453125 C 323.69534 19.059125 316.76298 22.048266 312.95898 22.822266 C 312.88898 22.834266 313.20117 23.422703 313.20117 24.095703 L 313.20117 43.302734 L 319.05664 47.632812 C 324.58564 44.101813 328.52064 43.213844 330.43164 42.839844 L 330.48633 21.414062 L 330.48438 21.412109 L 326.15234 17.453125 z M 382.17773 17.476562 C 382.08173 17.546563 375.85742 21.751953 375.85742 21.751953 L 376.12109 22.275391 C 376.12109 22.275391 376.98967 21.717188 377.13867 21.617188 L 377.54883 21.888672 C 378.34183 22.623672 378.59766 23.113187 378.59766 23.492188 L 378.59766 43.740234 L 381.98633 47.230469 L 388.44922 43.771484 L 387.96094 43.091797 C 387.96094 43.091797 387.0603 43.537688 387.0293 43.554688 L 385.42969 41.890625 C 385.42969 41.890625 385.42573 20.908094 385.42773 20.246094 C 385.38173 20.214094 382.25273 17.548563 382.17773 17.476562 z M 540.53516 17.544922 L 535.24219 21.667969 L 531.30078 17.851562 L 526.14453 21.884766 L 529.70117 25.800781 C 529.15217 26.581781 527.64358 29.502703 529.39258 31.845703 C 529.75558 32.331703 529.87305 32.525391 529.87305 32.525391 L 529.375 32.720703 C 526.101 33.725703 523.73225 37.331453 523.65625 39.939453 C 523.65625 42.092453 524.72356 45.781516 527.72656 47.353516 L 536.89648 41.707031 L 536.94727 42.378906 C 537.05227 43.895906 537.95986 45.545266 539.50586 47.447266 L 544.97266 43.611328 L 544.55078 43.015625 C 544.17578 42.542625 543.88527 41.877297 543.94727 41.404297 L 543.94727 20.707031 C 543.60027 20.375031 540.53516 17.544922 540.53516 17.544922 z M 78.605469 17.5625 L 67.707031 24.732422 L 67.707031 43.246094 C 69.756031 44.709094 74.339844 47.365234 74.339844 47.365234 L 80.583984 43.384766 L 80.287109 43.050781 C 80.287109 43.050781 78.640578 44.039984 78.392578 44.208984 C 78.392578 44.208984 74.710109 41.55925 74.662109 41.53125 L 74.662109 33.238281 L 83.826172 27.160156 L 78.605469 17.5625 z M 217.66797 17.5625 L 206.76953 24.732422 L 206.76953 43.246094 C 208.81853 44.709094 213.40039 47.365234 213.40039 47.365234 L 219.64648 43.384766 L 219.33984 43.037109 L 217.44531 44.195312 C 217.44531 44.195312 213.77556 41.55925 213.72656 41.53125 L 213.72656 33.238281 L 222.88867 27.160156 L 217.66797 17.5625 z M 228.15625 17.587891 L 222.39062 21.341797 L 222.69336 21.851562 C 222.69336 21.851562 223.74222 21.175109 223.94922 21.037109 C 223.94922 21.037109 225.98919 22.910453 225.99219 24.689453 L 226.00195 45.939453 C 223.68695 46.610453 221.31073 48.349078 221.30273 52.580078 C 221.29873 54.556078 222.99391 57.095766 226.12891 57.509766 C 227.78991 57.764766 232.54759 57.071781 232.68359 57.050781 C 233.33559 56.947781 234.17559 56.821609 236.55859 56.724609 C 238.56659 56.642609 239.86172 57.477687 240.51172 58.179688 C 240.65672 58.336687 240.82344 58.487547 241.02344 58.685547 L 241.07031 58.642578 C 241.68331 58.024578 242.22266 56.664422 242.22266 55.732422 C 242.22266 53.697422 241.36227 52.230047 239.82227 51.373047 C 238.75427 50.778047 237.38466 50.554688 235.59766 50.554688 C 235.49866 50.555687 235.01384 50.57425 234.33984 50.65625 C 233.51184 50.75725 232.3823 50.856125 231.4043 50.953125 C 229.9293 51.099125 228.41702 51.289062 227.41602 51.414062 C 226.75302 51.497062 226.31486 51.5605 226.13086 51.5625 C 225.34586 51.5675 224.69291 51.317578 224.25391 50.892578 C 223.80291 50.454578 223.64844 49.816453 223.64844 49.564453 C 223.80744 47.746453 226.0167 46.971688 226.7207 46.929688 C 226.7857 46.925688 227.60775 46.957516 227.71875 46.978516 C 229.13975 47.236516 232.03287 47.792688 235.29688 47.804688 C 236.33988 47.808687 237.42077 47.575953 238.50977 47.126953 C 239.52877 46.706953 240.52091 46.098187 241.37891 45.367188 C 242.23691 44.636187 242.70522 44.045734 243.19922 43.177734 C 243.71322 42.274734 243.97661 41.337047 243.97461 40.248047 C 243.97161 37.314047 243.97161 22.577547 243.97461 19.810547 C 243.74361 19.655547 240.60742 17.605469 240.60742 17.605469 L 235.38477 21.027344 L 237.22852 22.566406 L 237.22266 42.814453 C 237.21366 44.619453 235.71838 45.875187 233.60938 45.867188 C 233.60137 45.867188 233.06794 45.8895 232.71094 45.8125 L 232.70117 20.544922 L 228.15625 17.587891 z M 500.05664 17.613281 L 489.1582 24.783203 L 489.1582 43.296875 C 491.2082 44.758875 495.78906 47.414063 495.78906 47.414062 L 502.03516 43.435547 L 501.73047 43.087891 L 499.83594 44.246094 C 499.83594 44.246094 496.16323 41.610031 496.11523 41.582031 L 496.11523 33.289062 L 505.27734 27.210938 L 500.05664 17.613281 z M 198.01758 17.650391 L 190.93555 22.292969 L 190.74023 21.865234 C 189.81423 19.337234 188.33464 18.456609 187.68164 17.849609 L 187.64062 17.814453 L 180.92383 22.228516 L 181.20508 22.681641 C 181.20508 22.681641 181.9755 22.218516 182.3125 21.978516 C 182.9915 22.678516 184.16611 24.628344 184.16211 25.402344 L 184.16211 42.316406 L 182.33984 43.828125 L 187.53711 47.267578 L 192.73633 43.896484 L 190.92578 42.351562 L 190.91211 23.642578 L 192.66992 22.498047 C 192.66992 22.498047 195.19194 25.278828 195.21094 25.298828 L 195.21484 42.71875 C 195.20584 44.78975 196.89541 46.257141 198.06641 47.244141 C 198.07041 47.247141 204.35547 43.134766 204.35547 43.134766 L 204.06055 42.738281 L 202.88867 43.519531 C 202.88867 43.519531 201.92734 42.699688 201.90234 42.679688 L 201.90234 20.234375 L 198.01758 17.650391 z M 512.18555 17.658203 C 511.41855 18.164203 505.80664 21.859375 505.80664 21.859375 L 506.06055 22.261719 C 506.06055 22.261719 506.86572 21.742578 507.01172 21.642578 L 507.45312 21.951172 C 508.24512 22.687172 508.54688 23.221609 508.54688 23.599609 L 508.54688 41.582031 L 506.63477 43.152344 L 511.95312 47.242188 C 511.95312 47.242188 517.6095 43.323625 517.4375 43.390625 L 515.37695 41.609375 L 515.37695 23.683594 L 516.54883 22.941406 L 519.17969 26.277344 C 519.17969 26.277344 518.90672 26.669328 518.76172 26.861328 C 518.33672 27.423328 517.68431 28.272406 517.69531 29.441406 C 517.70031 29.879406 518.21009 30.912109 518.99609 30.912109 C 519.01409 30.912109 519.12172 30.911156 519.13672 30.910156 C 519.66072 30.885156 519.82523 30.798391 520.24023 30.650391 L 520.45508 30.572266 L 520.23438 30.519531 C 519.89437 30.437531 519.59319 30.295375 519.36719 30.109375 C 519.36019 30.103375 519.3012 30.067781 519.2832 30.050781 C 518.9962 29.785781 518.69336 29.311031 518.69336 28.957031 C 518.69336 28.326031 519.08538 27.532563 519.85938 26.601562 C 521.15138 25.122563 524.19336 22.929688 524.19336 22.929688 L 521.04297 18.501953 C 521.04297 18.501953 516.35483 21.598797 515.54883 22.091797 C 515.33883 21.762797 514.66255 19.412203 512.18555 17.658203 z M 339.48242 17.662109 C 338.71542 18.168109 333.10352 21.861328 333.10352 21.861328 L 333.35742 22.263672 C 333.35742 22.263672 334.16159 21.746484 334.30859 21.646484 L 334.75 21.953125 C 335.542 22.689125 335.84375 23.222562 335.84375 23.601562 L 335.84375 41.585938 L 333.93164 43.154297 L 339.24805 47.242188 C 339.24805 47.242188 344.90537 43.324578 344.73438 43.392578 L 342.67383 41.611328 L 342.67383 23.685547 L 343.8457 22.945312 L 346.47656 26.28125 C 346.47656 26.28125 346.20459 26.673234 346.05859 26.865234 C 345.63459 27.427234 344.98019 28.275313 344.99219 29.445312 C 344.99619 29.882313 345.50697 30.917969 346.29297 30.917969 C 346.31097 30.917969 346.41859 30.915062 346.43359 30.914062 C 346.95659 30.889063 347.12211 30.802297 347.53711 30.654297 L 347.75195 30.576172 L 347.53125 30.523438 C 347.19025 30.440438 346.89006 30.299281 346.66406 30.113281 C 346.65706 30.107281 346.59908 30.071687 346.58008 30.054688 C 346.29408 29.789687 345.99023 29.316891 345.99023 28.962891 C 345.99023 28.331891 346.38225 27.538422 347.15625 26.607422 C 348.44725 25.128422 351.49023 22.933594 351.49023 22.933594 L 348.33984 18.503906 C 348.33984 18.503906 343.6517 21.601703 342.8457 22.095703 C 342.6357 21.765703 341.96042 19.416109 339.48242 17.662109 z M 368.96289 17.691406 L 361.88086 22.332031 L 361.6875 21.90625 C 360.7595 19.37925 359.27995 18.497625 358.62695 17.890625 L 358.58789 17.853516 L 351.86914 22.269531 L 352.15039 22.720703 C 352.15039 22.720703 352.92177 22.257578 353.25977 22.017578 C 353.93877 22.718578 355.11142 24.667406 355.10742 25.441406 L 355.10742 42.357422 L 353.28516 43.869141 L 358.48242 47.308594 L 363.67969 43.9375 L 361.86914 42.392578 L 361.85742 23.683594 L 363.61523 22.541016 C 363.61523 22.541016 366.1363 25.320844 366.1543 25.339844 L 366.1582 42.759766 C 366.1492 44.830766 367.84172 46.300156 369.01172 47.285156 C 369.01572 47.289156 375.30078 43.175781 375.30078 43.175781 L 375.00781 42.777344 L 373.83398 43.558594 C 373.83398 43.558594 372.87461 42.73875 372.84961 42.71875 L 372.84961 20.275391 L 368.96289 17.691406 z M 405.82031 17.691406 L 398.73633 22.332031 L 398.54492 21.90625 C 397.61792 19.37925 396.13738 18.497625 395.48438 17.890625 L 395.44336 17.853516 L 388.72656 22.269531 L 389.00781 22.720703 C 389.00781 22.720703 389.77823 22.257578 390.11523 22.017578 C 390.79423 22.718578 391.96884 24.667406 391.96484 25.441406 L 391.96484 42.357422 L 390.14258 43.869141 L 395.33984 47.308594 L 400.53711 43.9375 L 398.72656 42.392578 L 398.71484 23.683594 L 400.47266 22.541016 C 400.47266 22.541016 402.99372 25.320844 403.01172 25.339844 L 403.01562 42.759766 C 403.00563 44.830766 404.69619 46.300156 405.86719 47.285156 C 405.87119 47.289156 412.15625 43.175781 412.15625 43.175781 L 411.86328 42.777344 L 410.69141 43.558594 C 410.69141 43.558594 409.73008 42.73875 409.70508 42.71875 L 409.70508 20.275391 L 405.82031 17.691406 z M 141.50195 17.734375 L 135.76172 21.474609 L 136.0625 21.984375 C 136.0625 21.984375 137.08692 21.320594 137.29492 21.183594 C 137.29492 21.183594 139.33489 23.054984 139.33789 24.833984 L 139.33984 45.972656 C 137.02384 46.644656 134.65644 48.494609 134.64844 52.724609 C 134.64444 54.699609 136.33961 57.240297 139.47461 57.654297 C 141.13561 57.909297 145.89034 57.216313 146.02734 57.195312 C 146.67934 57.094313 147.52034 56.966141 149.90234 56.869141 C 151.91134 56.788141 153.20447 57.622219 153.85547 58.324219 C 154.00047 58.481219 154.16819 58.635031 154.36719 58.832031 L 154.41406 58.787109 C 155.02706 58.170109 155.56641 56.810906 155.56641 55.878906 C 155.56641 53.844906 154.70797 52.376531 153.16797 51.519531 C 152.09897 50.923531 150.72936 50.699219 148.94336 50.699219 C 148.84436 50.699219 148.35855 50.719734 147.68555 50.802734 C 146.85755 50.902734 145.727 51.001656 144.75 51.097656 C 143.275 51.243656 141.76172 51.435547 140.76172 51.560547 C 140.09772 51.643547 139.65956 51.706031 139.47656 51.707031 C 138.69156 51.712031 138.14703 51.442578 137.70703 51.017578 C 137.25603 50.580578 137.13672 50.038109 137.13672 49.787109 C 137.29572 47.971109 139.5802 47.190437 140.2832 47.148438 C 140.3492 47.143437 140.91148 47.13125 141.02148 47.15625 C 142.35448 47.46125 145.37762 47.937219 148.64062 47.949219 C 149.68263 47.952219 150.76356 47.719484 151.85156 47.271484 C 152.87056 46.851484 153.86366 46.241719 154.72266 45.511719 C 155.58166 44.780719 156.04997 44.191266 156.54297 43.322266 C 157.05697 42.419266 157.31936 41.481531 157.31836 40.394531 C 157.31436 37.459531 157.31436 22.722078 157.31836 19.955078 C 157.08836 19.801078 153.95312 17.751953 153.95312 17.751953 L 148.73047 21.173828 L 150.57422 22.712891 L 150.56836 42.960938 C 150.56036 44.765937 149.06308 46.021625 146.95508 46.015625 C 146.94608 46.015625 146.41464 46.035031 146.05664 45.957031 L 146.04688 20.689453 L 141.50195 17.734375 z M 168.69922 20.8125 L 172.16406 24.072266 L 172.16797 43.164062 L 168.13477 40.371094 L 168.13477 21.244141 L 168.69922 20.8125 z M 570.12891 20.925781 L 573.59375 24.1875 L 573.5957 43.277344 L 569.5625 40.484375 L 569.5625 21.357422 L 570.12891 20.925781 z M 320.31836 21.572266 L 323.87891 25.4375 L 323.87891 43.365234 L 319.8457 40.570312 L 319.8457 21.787109 L 320.31836 21.572266 z M 421.04102 21.832031 L 425.66797 26.021484 L 425.66406 41.460938 L 424.23242 42.638672 L 424.11523 42.591797 C 422.42023 41.949797 420.33789 39.080609 420.33789 37.474609 L 420.33203 22.175781 L 421.04102 21.832031 z M 74.662109 21.957031 L 78.929688 29.195312 L 74.652344 32.037109 L 74.662109 21.957031 z M 213.72656 21.957031 L 217.99414 29.195312 L 213.7168 32.037109 L 213.72656 21.957031 z M 496.11719 22.009766 L 500.38281 29.246094 L 496.10547 32.089844 L 496.11719 22.009766 z M 535.30664 22.761719 L 536.77734 24.263672 L 536.76953 33.78125 C 534.36753 33.85125 532.45472 33.348203 531.51172 32.533203 C 527.57472 29.127203 531.00564 24.576719 535.30664 22.761719 z M 122.30469 30.076172 C 127.58269 31.208172 131.18164 34.074297 131.18164 37.029297 C 131.18164 38.349297 130.56855 40.106297 129.56055 41.404297 L 129.50977 41.474609 C 126.03977 39.020609 122.02553 37.220406 118.26953 36.191406 L 118.16797 36.15625 L 122.30469 30.076172 z M 530.52734 33.470703 C 530.67984 33.462453 530.82555 33.494625 530.93555 33.578125 C 532.54755 34.801125 534.46894 34.972063 536.71094 35.039062 L 536.80469 40.34375 L 532.45898 43.019531 C 530.99798 42.309531 530.06345 41.150766 529.56445 40.134766 C 528.98045 38.946766 528.67888 37.566797 528.67188 36.466797 C 528.67188 36.466797 528.63705 35.081125 529.24805 34.328125 C 529.53505 33.975125 529.89913 33.724281 530.07812 33.613281 C 530.21512 33.528781 530.37484 33.478953 530.52734 33.470703 z M 281.08594 37.478516 C 280.81694 38.566516 278.97159 42.195047 276.93359 42.248047 C 275.20359 42.294047 274.51397 42.290297 273.04297 41.904297 C 272.01997 41.636297 271.14155 41.466625 270.18555 41.390625 C 269.69855 41.351625 269.26455 41.328125 268.93555 41.328125 C 263.84755 41.328125 262.29025 45.771328 262.28125 48.486328 C 262.26425 53.247328 264.52048 58.333578 270.64648 58.267578 C 272.49148 58.267578 276.50781 57.225812 276.50781 53.507812 C 276.50781 53.377812 276.11259 51.224609 275.05859 51.224609 L 274.26758 51.224609 C 274.39858 51.876609 274.86133 52.920094 274.86133 53.246094 C 274.86133 55.660094 271.50273 56.964844 270.05273 56.964844 C 266.75973 56.964844 263.66211 55.008844 263.66211 50.964844 C 263.66211 48.746844 264.78297 46.417969 267.41797 46.417969 C 269.72397 46.417969 272.52563 47.824109 274.76562 47.787109 C 279.87862 47.700109 281.00194 44.350516 281.08594 37.478516 z M 464.23828 39.587891 C 456.87428 39.825891 450.907 46.491891 451 53.087891 C 451.037 55.761891 451.98605 59.740234 455.87305 59.740234 C 457.52005 59.740234 458.77148 59.022687 458.77148 56.804688 C 458.77148 56.412687 458.70541 55.697687 458.44141 55.304688 C 458.17741 56.023688 456.86192 57.783203 455.54492 57.783203 C 452.71292 57.719203 451.92188 55.435922 451.92188 53.544922 C 451.92188 49.501922 454.95058 44.806641 459.89258 44.806641 C 462.65858 44.806641 465.35955 45.980469 468.06055 48.980469 C 468.06055 48.980469 473.88961 44.731687 473.84961 44.679688 C 470.50961 40.491687 468.54228 39.449891 464.23828 39.587891 z M 106.7793 41.34375 C 108.2203 41.33075 109.22669 41.432187 112.05469 41.992188 L 112.64844 42.146484 C 111.38544 43.780484 109.92111 45.351813 108.53711 46.632812 C 108.18011 46.964812 107.85023 47.282031 107.49023 47.582031 C 106.41323 48.486031 105.32948 49.253375 104.27148 49.859375 C 103.15648 50.462375 102.0657 50.905828 100.9707 51.173828 C 100.6087 51.263828 100.3102 51.323187 100.0332 51.367188 C 99.575203 51.437188 99.116875 51.476422 98.671875 51.482422 C 98.463875 51.482422 98.251 51.470266 98 51.447266 C 95.737 51.230266 94.330078 49.908094 94.330078 47.996094 C 94.330078 42.923094 102.96728 41.347656 106.11328 41.347656 L 106.7793 41.34375 z M 425.16797 43.345703 C 426.24997 44.160703 427.61242 45.881906 428.23242 46.878906 C 428.87942 47.919906 429.09375 48.974672 429.09375 50.138672 C 429.09475 51.450672 428.778 52.270844 427.375 53.839844 L 426.5332 53.365234 C 424.4162 52.180234 422.41481 51.101703 420.13281 51.095703 C 420.00581 51.113703 419.79934 51.095 419.52734 51.125 C 418.80534 51.204 417.62113 51.374516 416.57812 51.603516 L 416.18555 50.808594 C 416.18555 50.808594 424.42097 43.940703 425.16797 43.345703 z" />
</svg>
